<svg width="32" height="32" viewBox="0 0 32 32" fill="none" xmlns="http://www.w3.org/2000/svg">
<g clip-path="url(#clip0_10_13397)">
<path opacity="0.2" d="M17.999 26.9979V4.99792C17.999 4.73271 17.8937 4.47835 17.7061 4.29082C17.5186 4.10328 17.2642 3.99792 16.999 3.99792H4.99902C4.73381 3.99792 4.47945 4.10328 4.29192 4.29082C4.10438 4.47835 3.99902 4.73271 3.99902 4.99792V26.9979" fill="white"/>
<path d="M2 26.9979H30" stroke="white" stroke-width="1.5" stroke-linecap="round" stroke-linejoin="round"/>
<path d="M17.999 26.9979V4.99792C17.999 4.73271 17.8937 4.47835 17.7061 4.29082C17.5186 4.10328 17.2642 3.99792 16.999 3.99792H4.99902C4.73381 3.99792 4.47945 4.10328 4.29192 4.29082C4.10438 4.47835 3.99902 4.73271 3.99902 4.99792V26.9979" stroke="white" stroke-width="1.5" stroke-linecap="round" stroke-linejoin="round"/>
<path d="M27.999 26.9979V12.9979C27.999 12.7327 27.8937 12.4784 27.7061 12.2908C27.5186 12.1033 27.2642 11.9979 26.999 11.9979H17.999" stroke="white" stroke-width="1.5" stroke-linecap="round" stroke-linejoin="round"/>
<path d="M7.99902 8.99792H11.999" stroke="white" stroke-width="1.5" stroke-linecap="round" stroke-linejoin="round"/>
<path d="M9.99902 16.9979H13.999" stroke="white" stroke-width="1.5" stroke-linecap="round" stroke-linejoin="round"/>
<path d="M7.99902 21.9979H11.999" stroke="white" stroke-width="1.5" stroke-linecap="round" stroke-linejoin="round"/>
<path d="M21.999 21.9979H23.999" stroke="white" stroke-width="1.5" stroke-linecap="round" stroke-linejoin="round"/>
<path d="M21.999 16.9979H23.999" stroke="white" stroke-width="1.5" stroke-linecap="round" stroke-linejoin="round"/>
</g>
<defs>
<clipPath id="clip0_10_13397">
<rect width="32" height="32" fill="white"/>
</clipPath>
</defs>
</svg>
